M48
;Layer_Color=9474304
;FILE_FORMAT=2:5
INCH,LZ
T6F00S00C0.00100
%
G90
G05
T06
G00X0197065Y0
M15
G01X0197099Y0
G01X0197111Y0133484
G01X0197048Y0133636
G01X0197022Y0133661
G01X0197048Y0133687
G01X0197111Y0133839
G01X0197111Y0133877
G01X0197048Y0134029
G01X0197021Y0134056
G01X019687Y0134119
G01X019685Y0134106
G01X019685Y0134107
G01X0Y0134123
G01X-000005Y0134079
G01X-0000019Y0134027
G01X0000114Y0133972
G01X0000157Y0133867
G01X0000148Y0133858
G01X0000165Y0000148
G01X019684Y0000165
G01X0196964Y0000114
G01X0197019Y-0000019
G01X0197065Y0
M16
G00X0000019Y0000168
M15
G01X0Y0000215
G01X-000005Y0000215
G01X-000005Y0000198
G01X-0000009Y0000157
G01X0000019Y0000168
M16
G00X-0000114Y0000114
M15
G01X-0000106Y0000133
G01X-0000152Y0000152
G01X-0000133Y0000106
G01X-0000114Y0000114
M16
G00X0000215Y0
M15
G01X0000168Y0000019
G01X0000165Y000001
G01X0000165Y0
G01X0000215Y0
M16
G00X-0000161Y0
M15
G01X-0000168Y0000019
G01X-0000215Y0
G01X-0000168Y-0000019
G01X-0000161Y0
M16
G00X0000133Y-0000106
M15
G01X0000114Y-0000114
G01X0000106Y-0000133
G01X0000152Y-0000152
G01X0000133Y-0000106
M16
G00X-0000106Y-0000133
M15
G01X-0000114Y-0000114
G01X-0000133Y-0000106
G01X-0000152Y-0000152
G01X-0000106Y-0000133
M16
G00X0000019Y-0000168
M15
G01X0Y-0000161
G01X-0000019Y-0000168
G01X0Y-0000215
G01X0000019Y-0000168
M16
M17
M30
