M48
;Layer_Color=9474304
;FILE_FORMAT=2:5
INCH,LZ
;TYPE=PLATED
T1F00S00C0.01181
T2F00S00C0.03543
T3F00S00C0.05906
T4F00S00C0.09843
T5F00S00C0.11811
%
T01
X0049606Y000561
X0053937Y0012598
X0059842Y0010905
X0065354Y0021358
X0072539Y0022736
X0069291Y0029232
X0061417
X0065354Y0037106
X0072539Y0038091
X0081102Y0038583
X008189Y0032972
X0087795Y0040039
X0094488Y0038189
X0102756Y0037402
X0109055Y0040945
X0111811
X0117323Y0040157
X0123622Y0040945
X0125984Y0037795
X0124016Y0021654
X0129528Y0022835
X0135433Y0017717
X0116535Y0013484
X0108661
X0104725Y000561
X0112599
X0090158Y0006811
X0087008Y000748
X0081614
X0075866Y0004449
X008937Y0016929
X0093701Y0021654
Y0027953
X0114173Y002874
X0058268Y0038189
X0185433Y0025295
Y0064665
X0182283Y0100787
X0180315Y0107874
Y0114961
X0177165Y0124016
X0161024Y012311
X0147638Y0115748
X0146063Y0111811
X0136221Y0116929
X0120866Y0116142
X0109449Y0120079
Y0124803
X0115748Y0131496
X0098819Y0122047
X0088189Y0120079
X0104331Y0111024
X0106114Y0081287
X0101575Y0078347
X0101449Y0074339
X0096851Y0068603
X0088189Y006811
X0087669Y007178
X007874Y0069291
X0077953Y007441
X0070866Y0070079
X0073228Y0052854
X0081103
X0088977
X0092914Y0060728
X0083071Y0060236
X0077165Y004498
X006563Y0046457
X0063386Y0056417
X0063779Y0085315
X0109323Y0066661
X0109378Y0064102
X0111929Y0061142
X0117717Y0061142
X0123622Y0061024
X0120473Y0052854
X0106299Y0052756
Y0059842
X0112205Y0069291
X0123504Y0074528
X0123622Y007874
X0137795Y0099606
X0136221Y004498
X0101969Y0046457
X0053543Y004498
X0054724Y0054843
Y0085827
T02
X0123819Y0007776
X0133819
X0143819
X0153819
X0163819
X0173819
X0183819
X0069095Y0096457
Y0106457
Y0116457
Y0126457
T03
X0022638Y0031496
Y0082677
T04
X0009646Y0018504
X003563
Y0044488
Y0069685
Y0095669
X0009646
Y0069685
Y0044488
T05
X0168307Y0052559
M30
