G04 Layer_Color=16711935*
%FSLAX25Y25*%
%MOIN*%
G70*
G01*
G75*
%ADD29C,0.00394*%
D29*
X87402Y105118D02*
Y116929D01*
X99213Y105118D02*
Y116929D01*
X87402D02*
X99213D01*
X87402Y105118D02*
X99213D01*
X105807Y117815D02*
X112303D01*
X105807Y114469D02*
X112303D01*
X105807D02*
Y117815D01*
X112303Y114469D02*
Y117815D01*
X131201Y103051D02*
Y109547D01*
X127854Y103051D02*
Y109547D01*
X131201D01*
X127854Y103051D02*
X131201D01*
X136024Y107874D02*
X144291D01*
X136024Y115748D02*
X144291D01*
Y107874D02*
Y115748D01*
X136024Y107874D02*
Y115748D01*
X158760Y116831D02*
Y123327D01*
X155413Y116831D02*
Y123327D01*
X158760D01*
X155413Y116831D02*
X158760D01*
X162598Y106299D02*
Y116535D01*
X177559Y106299D02*
Y116535D01*
X162598D02*
X177559D01*
X162598Y106299D02*
X177559D01*
X56496Y19094D02*
X74213D01*
X56496Y39173D02*
X74213D01*
Y19094D02*
Y39173D01*
X56496Y19094D02*
Y39173D01*
X50689Y54626D02*
Y61122D01*
X54035Y54626D02*
Y61122D01*
X50689Y54626D02*
X54035D01*
X50689Y61122D02*
X54035D01*
Y79429D02*
Y85925D01*
X50689Y79429D02*
Y85925D01*
X54035D01*
X50689Y79429D02*
X54035D01*
X52264Y75295D02*
X58760D01*
X52264Y71949D02*
X58760D01*
X52264D02*
Y75295D01*
X58760Y71949D02*
Y75295D01*
X52264Y65256D02*
X58760D01*
X52264Y68602D02*
X58760D01*
Y65256D02*
Y68602D01*
X52264Y65256D02*
Y68602D01*
X67815Y67618D02*
Y74114D01*
X64468Y67618D02*
Y74114D01*
X67815D01*
X64468Y67618D02*
X67815D01*
Y56201D02*
Y62697D01*
X64468Y56201D02*
Y62697D01*
X67815D01*
X64468Y56201D02*
X67815D01*
Y79035D02*
Y85532D01*
X64468Y79035D02*
Y85532D01*
X67815D01*
X64468Y79035D02*
X67815D01*
X10236Y19094D02*
Y43898D01*
X35039D01*
Y19094D02*
Y43898D01*
X10236Y19094D02*
X35039D01*
X10236Y70276D02*
Y95079D01*
X35039D01*
Y70276D02*
Y95079D01*
X10236Y70276D02*
X35039D01*
X123917Y20177D02*
X131988D01*
X123917Y15256D02*
X131988D01*
X123917D02*
Y20177D01*
X131988Y15256D02*
Y20177D01*
X123130Y26870D02*
X129626D01*
X123130Y23524D02*
X129626D01*
X123130D02*
Y26870D01*
X129626Y23524D02*
Y26870D01*
X117224Y33563D02*
X123721D01*
X117224Y30217D02*
X123721D01*
X117224D02*
Y33563D01*
X123721Y30217D02*
Y33563D01*
X117224Y39862D02*
X123721D01*
X117224Y36516D02*
X123721D01*
X117224D02*
Y39862D01*
X123721Y36516D02*
Y39862D01*
X100689Y28642D02*
Y35138D01*
X104035Y28642D02*
Y35138D01*
X100689Y28642D02*
X104035D01*
X100689Y35138D02*
X104035D01*
X82972Y33760D02*
Y40256D01*
X86319Y33760D02*
Y40256D01*
X82972Y33760D02*
X86319D01*
X82972Y40256D02*
X86319D01*
X89272Y33760D02*
Y40256D01*
X92618Y33760D02*
Y40256D01*
X89272Y33760D02*
X92618D01*
X89272Y40256D02*
X92618D01*
X59350Y45768D02*
X65847D01*
X59350Y42421D02*
X65847D01*
X59350D02*
Y45768D01*
X65847Y42421D02*
Y45768D01*
X85335Y26280D02*
X91831D01*
X85335Y29626D02*
X91831D01*
Y26280D02*
Y29626D01*
X85335Y26280D02*
Y29626D01*
Y19980D02*
X91831D01*
X85335Y23327D02*
X91831D01*
Y19980D02*
Y23327D01*
X85335Y19980D02*
Y23327D01*
X64665Y2520D02*
X71555D01*
X64665Y14803D02*
X71555D01*
Y2520D02*
Y14803D01*
X64665Y2520D02*
Y14803D01*
X55020Y4626D02*
Y11122D01*
X58366Y4626D02*
Y11122D01*
X55020Y4626D02*
X58366D01*
X55020Y11122D02*
X58366D01*
X81398Y6004D02*
X87894D01*
X81398Y2657D02*
X87894D01*
X81398D02*
Y6004D01*
X87894Y2657D02*
Y6004D01*
X81791Y13878D02*
X89862D01*
X81791Y8957D02*
X89862D01*
X81791D02*
Y13878D01*
X89862Y8957D02*
Y13878D01*
X85642Y60461D02*
X103358D01*
X85642Y80539D02*
X103358D01*
Y60461D02*
Y80539D01*
X85642Y60461D02*
Y80539D01*
X116240Y60925D02*
Y67421D01*
X112894Y60925D02*
Y67421D01*
X116240D01*
X112894Y60925D02*
X116240D01*
X122539D02*
Y67421D01*
X119193Y60925D02*
Y67421D01*
X122539D01*
X119193Y60925D02*
X122539D01*
X112106Y74311D02*
Y80807D01*
X115453Y74311D02*
Y80807D01*
X112106Y74311D02*
X115453D01*
X112106Y80807D02*
X115453D01*
X118799Y74311D02*
Y80807D01*
X122146Y74311D02*
Y80807D01*
X118799Y74311D02*
X122146D01*
X118799Y80807D02*
X122146D01*
X99902Y54232D02*
X106398D01*
X99902Y57579D02*
X106398D01*
Y54232D02*
Y57579D01*
X99902Y54232D02*
Y57579D01*
Y47933D02*
X106398D01*
X99902Y51279D02*
X106398D01*
Y47933D02*
Y51279D01*
X99902Y47933D02*
Y51279D01*
X107382Y29035D02*
Y37106D01*
X112303Y29035D02*
Y37106D01*
X107382Y29035D02*
X112303D01*
X107382Y37106D02*
X112303D01*
X137697Y122539D02*
X144193D01*
X137697Y119193D02*
X144193D01*
X137697D02*
Y122539D01*
X144193Y119193D02*
Y122539D01*
X164075Y123721D02*
X170571D01*
X164075Y120374D02*
X170571D01*
X164075D02*
Y123721D01*
X170571Y120374D02*
Y123721D01*
X158760Y105413D02*
Y111909D01*
X155413Y105413D02*
Y111909D01*
X158760D01*
X155413Y105413D02*
X158760D01*
X0Y0D02*
Y133858D01*
X196850D01*
X0Y0D02*
X196850D01*
X135000D02*
X196850D01*
Y133858D01*
X0Y118000D02*
Y133465D01*
M02*
