G04 Layer_Physical_Order=2*
G04 Layer_Color=16711680*
%FSLAX25Y25*%
%MOIN*%
G70*
G01*
G75*
%ADD10C,0.01000*%
%ADD20C,0.01575*%
%ADD21C,0.01181*%
%ADD22C,0.03937*%
%ADD23C,0.01378*%
%ADD29C,0.00394*%
%ADD30C,0.03937*%
%ADD31C,0.09055*%
%ADD32C,0.13386*%
%ADD33C,0.25590*%
%ADD34C,0.05905*%
%ADD35R,0.05905X0.05905*%
%ADD36R,0.05905X0.05905*%
%ADD37C,0.01968*%
G36*
X136305Y119406D02*
X136080Y118924D01*
X135446Y118798D01*
X135376Y118752D01*
X134646D01*
X133948Y118613D01*
X133357Y118218D01*
X133357Y118218D01*
X120541Y105401D01*
X120079Y105593D01*
Y115354D01*
Y120518D01*
X135193D01*
X136305Y119406D01*
D02*
G37*
G36*
X196850Y0D02*
X119917D01*
Y3823D01*
X127772D01*
Y11728D01*
X119917D01*
Y45835D01*
X119982Y46328D01*
X120237Y46942D01*
X120641Y47469D01*
X121168Y47874D01*
X121782Y48128D01*
X122275Y48193D01*
X125429D01*
X125495Y48206D01*
X125562Y48202D01*
X126255Y48293D01*
X126381Y48336D01*
X126512Y48362D01*
X127374Y48719D01*
X127485Y48793D01*
X127604Y48852D01*
X128345Y49420D01*
X128433Y49520D01*
X128533Y49608D01*
X129101Y50348D01*
X129160Y50468D01*
X129234Y50579D01*
X129591Y51441D01*
X130067Y51322D01*
Y30282D01*
X123324Y23539D01*
X123241Y23523D01*
X122585Y23084D01*
X122147Y22428D01*
X121993Y21654D01*
X122147Y20879D01*
X122585Y20223D01*
X123241Y19784D01*
X124016Y19630D01*
X124790Y19784D01*
X125446Y20223D01*
X125885Y20879D01*
X125901Y20962D01*
X133178Y28239D01*
X133178Y28239D01*
X133573Y28830D01*
X133712Y29528D01*
X133712Y29528D01*
Y68504D01*
X133712Y68504D01*
X133573Y69201D01*
X133178Y69793D01*
X127155Y75816D01*
X126564Y76211D01*
X125866Y76350D01*
X125866Y76350D01*
X124348D01*
X124278Y76397D01*
X123504Y76551D01*
X122730Y76397D01*
X122073Y75958D01*
X121635Y75302D01*
X121481Y74528D01*
X121635Y73753D01*
X122073Y73097D01*
X122730Y72658D01*
X123504Y72504D01*
X124278Y72658D01*
X124348Y72705D01*
X125111D01*
X126230Y71586D01*
X126230Y71560D01*
X126221Y71495D01*
X126011Y71098D01*
X114581D01*
X114531Y71088D01*
X114481Y71093D01*
X114338Y71050D01*
X114191Y71021D01*
X114149Y70993D01*
X114100Y70978D01*
X114078Y70960D01*
X113801Y70811D01*
X113387Y70888D01*
X112979Y71161D01*
X112205Y71315D01*
X111431Y71161D01*
X111023Y70888D01*
X110609Y70811D01*
X110331Y70960D01*
X110309Y70978D01*
X110261Y70993D01*
X110219Y71021D01*
X110072Y71050D01*
X109928Y71093D01*
X109878Y71088D01*
X109828Y71098D01*
X88696D01*
X88597Y71079D01*
X88497D01*
X88404Y71040D01*
X88305Y71021D01*
X88222Y70965D01*
X88129Y70926D01*
X88046Y70871D01*
X87669Y70796D01*
X87293Y70871D01*
X87210Y70926D01*
X87117Y70965D01*
X87033Y71021D01*
X86935Y71040D01*
X86842Y71079D01*
X86742D01*
X86643Y71098D01*
X79607D01*
X79514Y71161D01*
X78740Y71315D01*
X77966Y71161D01*
X77873Y71098D01*
X77316D01*
X76592Y71194D01*
X75691Y71567D01*
X75197Y71946D01*
Y88583D01*
X101368D01*
X101520Y88083D01*
X101145Y87832D01*
X96814Y83501D01*
X96441Y82942D01*
X96309Y82284D01*
Y76983D01*
X96441Y76324D01*
X96814Y75765D01*
X99458Y73121D01*
X100017Y72748D01*
X100361Y72679D01*
X100675Y72470D01*
X101449Y72316D01*
X102223Y72470D01*
X102879Y72908D01*
X103318Y73564D01*
X103472Y74339D01*
X103318Y75113D01*
X102879Y75769D01*
X102500Y76023D01*
X102487Y76063D01*
X102534Y76601D01*
X103005Y76916D01*
X103444Y77572D01*
X103598Y78347D01*
X103444Y79121D01*
X103297Y79341D01*
Y81570D01*
X103722Y81995D01*
X104183Y81749D01*
X104091Y81287D01*
X104245Y80513D01*
X104684Y79857D01*
X105340Y79418D01*
X106114Y79264D01*
X106888Y79418D01*
X107108Y79565D01*
X129810D01*
X144451Y64925D01*
Y40835D01*
X144582Y40176D01*
X144955Y39617D01*
X162097Y22476D01*
Y11341D01*
X161826Y11228D01*
X161000Y10595D01*
X160366Y9769D01*
X159968Y8807D01*
X159832Y7776D01*
X159968Y6744D01*
X160366Y5782D01*
X161000Y4956D01*
X161826Y4323D01*
X162787Y3925D01*
X163819Y3789D01*
X164851Y3925D01*
X165812Y4323D01*
X166638Y4956D01*
X167272Y5782D01*
X167670Y6744D01*
X167806Y7776D01*
X167670Y8807D01*
X167272Y9769D01*
X166638Y10595D01*
X165812Y11228D01*
X165541Y11341D01*
Y22315D01*
X166003Y22507D01*
X172097Y16413D01*
Y11341D01*
X171826Y11228D01*
X171000Y10595D01*
X170366Y9769D01*
X169968Y8807D01*
X169832Y7776D01*
X169968Y6744D01*
X170366Y5782D01*
X171000Y4956D01*
X171826Y4323D01*
X172787Y3925D01*
X173819Y3789D01*
X174851Y3925D01*
X175812Y4323D01*
X176638Y4956D01*
X177272Y5782D01*
X177670Y6744D01*
X177806Y7776D01*
X177670Y8807D01*
X177272Y9769D01*
X176638Y10595D01*
X175812Y11228D01*
X175541Y11341D01*
Y16252D01*
X176003Y16444D01*
X181214Y11233D01*
X181181Y10734D01*
X181000Y10595D01*
X180366Y9769D01*
X179968Y8807D01*
X179832Y7776D01*
X179968Y6744D01*
X180366Y5782D01*
X181000Y4956D01*
X181825Y4323D01*
X182787Y3925D01*
X183819Y3789D01*
X184851Y3925D01*
X185812Y4323D01*
X186638Y4956D01*
X187272Y5782D01*
X187670Y6744D01*
X187806Y7776D01*
X187670Y8807D01*
X187272Y9769D01*
X186638Y10595D01*
X185812Y11228D01*
X185481Y11366D01*
X185410Y11722D01*
X185037Y12281D01*
X152651Y44667D01*
Y67608D01*
X152520Y68267D01*
X152146Y68826D01*
X133140Y87832D01*
X132765Y88083D01*
X132917Y88583D01*
X196850D01*
Y0D01*
D02*
G37*
G36*
X71394Y88839D02*
X72176Y88317D01*
X72698Y87536D01*
X72835Y86847D01*
Y74493D01*
X72956Y73570D01*
X73432Y72421D01*
X74190Y71434D01*
X75177Y70676D01*
X76326Y70200D01*
X77249Y70079D01*
X86643D01*
X86895Y69910D01*
X87669Y69756D01*
X88443Y69910D01*
X88696Y70079D01*
X109828D01*
X110239Y69579D01*
X110182Y69291D01*
X110242Y68989D01*
X109812Y68587D01*
X109323Y68685D01*
X108651Y68551D01*
X105118D01*
Y68565D01*
X103263Y68383D01*
X101479Y67842D01*
X99834Y66963D01*
X98393Y65780D01*
X97211Y64339D01*
X96332Y62695D01*
X95790Y60910D01*
X95608Y59055D01*
X95622D01*
Y31496D01*
X95632Y31450D01*
X95493Y30754D01*
X95073Y30124D01*
X95004Y30079D01*
X95004Y30079D01*
X94863Y29976D01*
X94532Y29784D01*
X94475Y29822D01*
X93701Y29976D01*
X92927Y29822D01*
X92270Y29383D01*
X91832Y28727D01*
X91678Y27953D01*
X91832Y27179D01*
X92270Y26522D01*
X92927Y26084D01*
X93701Y25930D01*
X94475Y26084D01*
X95073Y26483D01*
X95090Y26485D01*
X96254Y26967D01*
X96873Y27442D01*
X97263Y27112D01*
X96591Y25853D01*
X95592Y24637D01*
X95531Y24596D01*
X94570Y23635D01*
X94563Y23625D01*
X94425Y23533D01*
X93701Y23677D01*
X92927Y23523D01*
X92270Y23084D01*
X91832Y22428D01*
X91678Y21654D01*
X91832Y20879D01*
X92270Y20223D01*
X92927Y19784D01*
X93701Y19630D01*
X94475Y19784D01*
X95131Y20223D01*
X95193Y20315D01*
X95941Y20625D01*
X96869Y21337D01*
X96864Y21342D01*
X97824Y22302D01*
X97827Y22299D01*
X99012Y23686D01*
X99966Y25242D01*
X100664Y26927D01*
X101090Y28701D01*
X101233Y30520D01*
X101228D01*
Y59449D01*
X101223Y59472D01*
X101326Y60254D01*
X101637Y61004D01*
X102131Y61648D01*
X102776Y62143D01*
X103526Y62453D01*
X104307Y62556D01*
X104331Y62551D01*
X108127D01*
X108604Y62233D01*
X109378Y62079D01*
X110152Y62233D01*
X110809Y62672D01*
X111247Y63328D01*
X111401Y64102D01*
X111247Y64877D01*
X110882Y65423D01*
X111192Y65887D01*
X111346Y66661D01*
X111286Y66963D01*
X111716Y67365D01*
X112030Y67303D01*
X112644Y66689D01*
Y30023D01*
X112304Y29514D01*
X112150Y28740D01*
X112304Y27966D01*
X112551Y27596D01*
Y25869D01*
X91454Y4771D01*
X77837D01*
X77822Y4786D01*
X77735Y5223D01*
X77297Y5879D01*
X76640Y6318D01*
X75866Y6472D01*
X75092Y6318D01*
X74436Y5879D01*
X73997Y5223D01*
X73843Y4449D01*
X73997Y3675D01*
X74436Y3018D01*
X75092Y2580D01*
X75529Y2493D01*
X76019Y2003D01*
X76545Y1651D01*
X77165Y1528D01*
X92126D01*
X92747Y1651D01*
X93273Y2003D01*
X115320Y24050D01*
X115672Y24576D01*
X115795Y25197D01*
Y27596D01*
X116042Y27966D01*
X116196Y28740D01*
X116042Y29514D01*
X115703Y30023D01*
Y67323D01*
X115586Y67908D01*
X115255Y68404D01*
X114193Y69466D01*
X114171Y69579D01*
X114581Y70079D01*
X126165D01*
X126704Y70008D01*
X127246Y69783D01*
X128445Y68584D01*
X128669Y68042D01*
X128740Y67503D01*
Y52524D01*
X128649Y51831D01*
X128292Y50969D01*
X127724Y50229D01*
X126984Y49661D01*
X126122Y49304D01*
X125429Y49213D01*
X122209D01*
X121516Y49121D01*
X120654Y48764D01*
X119914Y48196D01*
X119346Y47456D01*
X118989Y46594D01*
X118898Y45902D01*
Y45669D01*
Y0D01*
X43307D01*
Y17966D01*
X43360Y18504D01*
X43307Y19042D01*
Y43950D01*
X43360Y44488D01*
X43307Y45026D01*
Y69147D01*
X43360Y69685D01*
X43307Y70223D01*
Y88976D01*
X70705D01*
X71394Y88839D01*
D02*
G37*
G36*
X196850Y133465D02*
Y96457D01*
X120079D01*
Y99785D01*
X135391Y115097D01*
X135446Y115060D01*
X136221Y114906D01*
X136995Y115060D01*
X137651Y115499D01*
X138090Y116155D01*
X138216Y116788D01*
X138698Y117013D01*
X144075Y111637D01*
X144194Y111037D01*
X144632Y110380D01*
X145289Y109942D01*
X145888Y109823D01*
X148919Y106793D01*
X149415Y106461D01*
X150000Y106345D01*
X179032D01*
X179541Y106005D01*
X180315Y105851D01*
X181089Y106005D01*
X181746Y106444D01*
X182184Y107100D01*
X182338Y107874D01*
X182184Y108648D01*
X181746Y109305D01*
X181089Y109743D01*
X180315Y109897D01*
X179541Y109743D01*
X179032Y109403D01*
X150634D01*
X148051Y111986D01*
X147932Y112585D01*
X148324Y112899D01*
X150493Y110730D01*
X150989Y110398D01*
X151575Y110282D01*
X177165D01*
X177751Y110398D01*
X178247Y110730D01*
X180489Y112972D01*
X181089Y113092D01*
X181746Y113530D01*
X182184Y114186D01*
X182338Y114961D01*
X182184Y115735D01*
X181746Y116391D01*
X181089Y116830D01*
X180315Y116984D01*
X179541Y116830D01*
X178884Y116391D01*
X178446Y115735D01*
X178326Y115135D01*
X176532Y113340D01*
X152208D01*
X149626Y115922D01*
X149507Y116522D01*
X149068Y117179D01*
X148412Y117617D01*
X147812Y117736D01*
X139664Y125885D01*
X139168Y126216D01*
X138583Y126332D01*
X119835D01*
X119730Y126587D01*
X119288Y127162D01*
X118713Y127604D01*
X118042Y127882D01*
X117503Y127953D01*
X107703D01*
X107403Y128183D01*
X106681Y128483D01*
X105905Y128585D01*
X82284D01*
X81508Y128483D01*
X80786Y128183D01*
X80486Y127953D01*
X68504D01*
X66949Y127331D01*
X66535Y127611D01*
Y133858D01*
X196457D01*
X196850Y133465D01*
D02*
G37*
%LPC*%
G36*
X153819Y11762D02*
X152787Y11627D01*
X151825Y11228D01*
X151000Y10595D01*
X150366Y9769D01*
X149968Y8807D01*
X149832Y7776D01*
X149968Y6744D01*
X150366Y5782D01*
X151000Y4956D01*
X151825Y4323D01*
X152787Y3925D01*
X153819Y3789D01*
X154851Y3925D01*
X155812Y4323D01*
X156638Y4956D01*
X157272Y5782D01*
X157670Y6744D01*
X157806Y7776D01*
X157670Y8807D01*
X157272Y9769D01*
X156638Y10595D01*
X155812Y11228D01*
X154851Y11627D01*
X153819Y11762D01*
D02*
G37*
G36*
X143819D02*
X142787Y11627D01*
X141825Y11228D01*
X141000Y10595D01*
X140366Y9769D01*
X139968Y8807D01*
X139832Y7776D01*
X139968Y6744D01*
X140366Y5782D01*
X141000Y4956D01*
X141825Y4323D01*
X142787Y3925D01*
X143819Y3789D01*
X144851Y3925D01*
X145812Y4323D01*
X146638Y4956D01*
X147272Y5782D01*
X147670Y6744D01*
X147806Y7776D01*
X147670Y8807D01*
X147272Y9769D01*
X146638Y10595D01*
X145812Y11228D01*
X144851Y11627D01*
X143819Y11762D01*
D02*
G37*
G36*
X168307Y66397D02*
X166142Y66227D01*
X164031Y65720D01*
X162025Y64889D01*
X160173Y63754D01*
X158522Y62344D01*
X157112Y60693D01*
X155977Y58841D01*
X155146Y56835D01*
X154639Y54724D01*
X154469Y52559D01*
X154639Y50394D01*
X155146Y48283D01*
X155977Y46277D01*
X157112Y44425D01*
X158522Y42774D01*
X160173Y41364D01*
X162025Y40229D01*
X164031Y39398D01*
X166142Y38892D01*
X168307Y38721D01*
X170472Y38892D01*
X172583Y39398D01*
X174589Y40229D01*
X176441Y41364D01*
X178092Y42774D01*
X179502Y44425D01*
X180637Y46277D01*
X181468Y48283D01*
X181975Y50394D01*
X182145Y52559D01*
X181975Y54724D01*
X181468Y56835D01*
X180637Y58841D01*
X179502Y60693D01*
X178092Y62344D01*
X176441Y63754D01*
X174589Y64889D01*
X172583Y65720D01*
X170472Y66227D01*
X168307Y66397D01*
D02*
G37*
G36*
X106299Y61866D02*
X105525Y61712D01*
X104869Y61273D01*
X104430Y60617D01*
X104276Y59842D01*
X104430Y59068D01*
X104677Y58698D01*
Y53900D01*
X104430Y53530D01*
X104276Y52756D01*
X104430Y51982D01*
X104677Y51611D01*
Y25475D01*
X91061Y11858D01*
X84370D01*
X83750Y11734D01*
X83223Y11383D01*
X81277Y9436D01*
X80840Y9349D01*
X80184Y8911D01*
X79745Y8254D01*
X79591Y7480D01*
X79745Y6706D01*
X80184Y6050D01*
X80840Y5611D01*
X81614Y5457D01*
X82388Y5611D01*
X83045Y6050D01*
X83483Y6706D01*
X83570Y7143D01*
X85042Y8614D01*
X91732D01*
X92353Y8738D01*
X92879Y9089D01*
X107446Y23656D01*
X107798Y24183D01*
X107921Y24803D01*
Y51611D01*
X108168Y51982D01*
X108322Y52756D01*
X108168Y53530D01*
X107921Y53900D01*
Y58698D01*
X108168Y59068D01*
X108322Y59842D01*
X108168Y60617D01*
X107730Y61273D01*
X107073Y61712D01*
X106299Y61866D01*
D02*
G37*
G36*
X58268Y40212D02*
X57494Y40058D01*
X56837Y39619D01*
X56399Y38963D01*
X56245Y38189D01*
X56399Y37415D01*
X56837Y36758D01*
X57494Y36320D01*
X57930Y36233D01*
X62337Y31826D01*
X62864Y31474D01*
X63484Y31351D01*
X80745D01*
X81116Y31103D01*
X81890Y30949D01*
X82664Y31103D01*
X83320Y31542D01*
X83759Y32198D01*
X83913Y32972D01*
X83759Y33747D01*
X83320Y34403D01*
X82664Y34842D01*
X81890Y34996D01*
X81116Y34842D01*
X80745Y34594D01*
X64156D01*
X60224Y38526D01*
X60137Y38963D01*
X59698Y39619D01*
X59042Y40058D01*
X58268Y40212D01*
D02*
G37*
G36*
X161024Y125133D02*
X160249Y124979D01*
X159593Y124541D01*
X159154Y123884D01*
X159001Y123110D01*
X159154Y122336D01*
X159593Y121680D01*
X160249Y121241D01*
X161024Y121087D01*
X161798Y121241D01*
X162454Y121680D01*
X162893Y122336D01*
X163047Y123110D01*
X162893Y123884D01*
X162454Y124541D01*
X161798Y124979D01*
X161024Y125133D01*
D02*
G37*
%LPD*%
D10*
X75197Y116535D02*
X78740Y120079D01*
X75197Y112559D02*
Y116535D01*
X78740Y120079D02*
X88189D01*
X74685Y122047D02*
X98819D01*
X88189Y120079D02*
X109449D01*
X98819Y122047D02*
X135827D01*
X69095Y116457D02*
X74685Y122047D01*
X135827D02*
X146063Y111811D01*
X88189Y119291D02*
Y120079D01*
X69095Y106457D02*
X75197Y112559D01*
X98622Y121850D02*
X98819Y122047D01*
X109449Y124803D02*
X138583D01*
X147638Y115748D01*
X150000Y107874D02*
X180315D01*
X146063Y111811D02*
X150000Y107874D01*
X177165Y111811D02*
X180315Y114961D01*
X151575Y111811D02*
X177165D01*
X147638Y115748D02*
X151575Y111811D01*
X114173Y28740D02*
Y67323D01*
X112205Y69291D02*
X114173Y67323D01*
D20*
X104331Y111024D02*
X107756Y107598D01*
Y96457D02*
Y107598D01*
X134646Y116929D02*
X136221D01*
X114173Y96457D02*
X134646Y116929D01*
X69095Y96457D02*
X114173D01*
X124016Y21654D02*
X131890Y29528D01*
X123504Y74528D02*
X125866D01*
X131890Y68504D01*
Y29528D02*
Y68504D01*
D21*
X93701Y21654D02*
G03*
X95717Y22489I0J2851D01*
G01*
X96677Y23449D02*
G03*
X99606Y30520I-7071J7071D01*
G01*
X104331Y64173D02*
G03*
X99606Y59449I0J-4724D01*
G01*
X96100Y28888D02*
G03*
X97244Y31496I-2399J2608D01*
G01*
X93841Y27953D02*
G03*
X96100Y28888I0J3194D01*
G01*
X105118Y66929D02*
G03*
X97244Y59055I0J-7874D01*
G01*
X58268Y38189D02*
X63484Y32972D01*
X81890D01*
X81614Y7480D02*
X84370Y10236D01*
X75866Y4449D02*
X77165Y3150D01*
X92126D01*
X114173Y25197D01*
Y28740D01*
X95717Y22489D02*
X96677Y23449D01*
X99606Y30520D02*
Y59449D01*
X97244Y31496D02*
Y59055D01*
X93701Y27953D02*
X93841D01*
X105118Y66929D02*
X109449D01*
X104331Y64173D02*
X109449D01*
X84370Y10236D02*
X91732D01*
X106299Y24803D01*
Y59842D01*
D22*
X35630Y18504D02*
Y44488D01*
D23*
X101575Y78347D02*
Y82284D01*
X98032Y76983D02*
X100676Y74339D01*
X98032Y76983D02*
Y82284D01*
X102362Y86614D01*
X101575Y82284D02*
X103528Y84236D01*
X106114Y81287D02*
X130524D01*
X146173Y65638D01*
X131923Y86614D02*
X150929Y67608D01*
X130938Y84236D02*
X148551Y66623D01*
X103528Y84236D02*
X130938D01*
X102362Y86614D02*
X131923D01*
X183819Y7776D02*
Y11063D01*
X150929Y43953D02*
Y67608D01*
Y43953D02*
X183819Y11063D01*
X148551Y42394D02*
Y66623D01*
Y42394D02*
X173819Y17126D01*
Y7776D02*
Y17126D01*
X146173Y40835D02*
Y65638D01*
Y40835D02*
X163819Y23189D01*
Y7776D02*
Y23189D01*
D29*
X0Y0D02*
Y133858D01*
X196850D01*
X0Y0D02*
X196850D01*
X135000D02*
X196850D01*
Y133858D01*
X0Y118000D02*
Y133465D01*
D30*
X111417Y105512D02*
D03*
X94095Y125591D02*
D03*
X93701Y100394D02*
D03*
D31*
X22638Y31496D02*
D03*
Y82677D02*
D03*
D32*
X35630Y18504D02*
D03*
Y44488D02*
D03*
X9646D02*
D03*
Y18504D02*
D03*
X35630Y69685D02*
D03*
Y95669D02*
D03*
X9646D02*
D03*
Y69685D02*
D03*
D33*
X168307Y52559D02*
D03*
D34*
X183819Y7776D02*
D03*
X173819D02*
D03*
X163819D02*
D03*
X153819D02*
D03*
X133819D02*
D03*
X143819D02*
D03*
X69095Y126457D02*
D03*
Y116457D02*
D03*
Y106457D02*
D03*
D35*
X123819Y7776D02*
D03*
D36*
X69095Y96457D02*
D03*
D37*
X123622Y78740D02*
D03*
X135433Y17717D02*
D03*
X129528Y22835D02*
D03*
X125984Y37795D02*
D03*
X123622Y40945D02*
D03*
X111811D02*
D03*
X87008Y7480D02*
D03*
X88189Y68110D02*
D03*
X123622Y61024D02*
D03*
X94488Y38189D02*
D03*
X81102Y38583D02*
D03*
X53937Y12598D02*
D03*
X182283Y100787D02*
D03*
X177165Y124016D02*
D03*
X137795Y99606D02*
D03*
X115748Y131496D02*
D03*
X120866Y116142D02*
D03*
X109449Y120079D02*
D03*
X88189D02*
D03*
X104331Y111024D02*
D03*
X98819Y122047D02*
D03*
X109449Y124803D02*
D03*
X136221Y116929D02*
D03*
X161024Y123110D02*
D03*
X180315Y107874D02*
D03*
Y114961D02*
D03*
X147638Y115748D02*
D03*
X146063Y111811D02*
D03*
X72539Y22736D02*
D03*
Y38091D02*
D03*
X81890Y32972D02*
D03*
X58268Y38189D02*
D03*
X75866Y4449D02*
D03*
X114173Y28740D02*
D03*
X81614Y7480D02*
D03*
X106299Y59842D02*
D03*
X93701Y21654D02*
D03*
Y27953D02*
D03*
X109378Y64102D02*
D03*
X109323Y66661D02*
D03*
X112205Y69291D02*
D03*
X123504Y74528D02*
D03*
X106299Y52756D02*
D03*
X111929Y61142D02*
D03*
X117717Y61142D02*
D03*
X101969Y46457D02*
D03*
X83071Y60236D02*
D03*
X78740Y69291D02*
D03*
X87669Y71780D02*
D03*
X90158Y6811D02*
D03*
X59842Y10905D02*
D03*
X70866Y70079D02*
D03*
X63779Y85315D02*
D03*
X54724Y85827D02*
D03*
Y54843D02*
D03*
X63386Y56417D02*
D03*
X65630Y46457D02*
D03*
X87795Y40039D02*
D03*
X49606Y5610D02*
D03*
X53543Y44980D02*
D03*
X61417Y29232D02*
D03*
X65354Y21358D02*
D03*
X69291Y29232D02*
D03*
X65354Y37106D02*
D03*
X77165Y44980D02*
D03*
X73228Y52854D02*
D03*
X81103D02*
D03*
X88977D02*
D03*
X92914Y60728D02*
D03*
X96851Y68603D02*
D03*
X104725Y5610D02*
D03*
X108661Y13484D02*
D03*
X112599Y5610D02*
D03*
X116535Y13484D02*
D03*
X120473Y52854D02*
D03*
X89370Y16929D02*
D03*
X102756Y37402D02*
D03*
X109055Y40945D02*
D03*
X117323Y40157D02*
D03*
X101449Y74339D02*
D03*
X106114Y81287D02*
D03*
X77953Y74410D02*
D03*
X101575Y78347D02*
D03*
X136221Y44980D02*
D03*
X185433Y25295D02*
D03*
Y64665D02*
D03*
X124016Y21654D02*
D03*
M02*
