G04 Layer_Color=32768*
%FSLAX25Y25*%
%MOIN*%
G70*
G01*
G75*
%ADD29C,0.00394*%
%ADD57C,0.00197*%
D29*
X91339Y111024D02*
X95276D01*
X93307Y109055D02*
Y112992D01*
X109055Y114469D02*
Y117815D01*
X107382Y116142D02*
X110728D01*
X127854Y106299D02*
X131201D01*
X129527Y104626D02*
Y107972D01*
X140157Y109843D02*
Y113779D01*
X138189Y111811D02*
X142126D01*
X155413Y120079D02*
X158760D01*
X157087Y118405D02*
Y121752D01*
X168110Y111417D02*
X172047D01*
X170079Y109449D02*
Y113386D01*
X65354Y27165D02*
Y31102D01*
X63386Y29134D02*
X67323D01*
X50689Y57874D02*
X54035D01*
X52362Y56201D02*
Y59547D01*
X50689Y82677D02*
X54035D01*
X52362Y81004D02*
Y84350D01*
X55512Y71949D02*
Y75295D01*
X53839Y73622D02*
X57185D01*
X55512Y65256D02*
Y68602D01*
X53839Y66929D02*
X57185D01*
X64468Y70866D02*
X67815D01*
X66142Y69193D02*
Y72539D01*
X64468Y59449D02*
X67815D01*
X66142Y57776D02*
Y61122D01*
X64468Y82284D02*
X67815D01*
X66142Y80610D02*
Y83957D01*
X127953Y15748D02*
Y19685D01*
X125984Y17717D02*
X129921D01*
X126378Y23524D02*
Y26870D01*
X124705Y25197D02*
X128051D01*
X120472Y30217D02*
Y33563D01*
X118799Y31890D02*
X122146D01*
X120472Y36516D02*
Y39862D01*
X118799Y38189D02*
X122146D01*
X100689Y31890D02*
X104035D01*
X102362Y30217D02*
Y33563D01*
X82972Y37008D02*
X86319D01*
X84646Y35335D02*
Y38681D01*
X89272Y37008D02*
X92618D01*
X90945Y35335D02*
Y38681D01*
X62598Y42421D02*
Y45768D01*
X60925Y44094D02*
X64272D01*
X88583Y26280D02*
Y29626D01*
X86910Y27953D02*
X90256D01*
X88583Y19980D02*
Y23327D01*
X86910Y21654D02*
X90256D01*
X68110Y6693D02*
Y10630D01*
X66142Y8661D02*
X70079D01*
X55020Y7874D02*
X58366D01*
X56693Y6201D02*
Y9547D01*
X84646Y2657D02*
Y6004D01*
X82972Y4331D02*
X86319D01*
X85827Y9449D02*
Y13386D01*
X83858Y11417D02*
X87795D01*
X94500Y68532D02*
Y72469D01*
X92532Y70500D02*
X96469D01*
X112894Y64173D02*
X116240D01*
X114567Y62500D02*
Y65847D01*
X119193Y64173D02*
X122539D01*
X120866Y62500D02*
Y65847D01*
X112106Y77559D02*
X115453D01*
X113779Y75886D02*
Y79232D01*
X118799Y77559D02*
X122146D01*
X120472Y75886D02*
Y79232D01*
X103150Y54232D02*
Y57579D01*
X101476Y55905D02*
X104823D01*
X103150Y47933D02*
Y51279D01*
X101476Y49606D02*
X104823D01*
X107874Y33071D02*
X111811D01*
X109843Y31102D02*
Y35039D01*
X140945Y119193D02*
Y122539D01*
X139272Y120866D02*
X142618D01*
X167323Y120374D02*
Y123721D01*
X165650Y122047D02*
X168996D01*
X155413Y108661D02*
X158760D01*
X157087Y106988D02*
Y110335D01*
X0Y0D02*
Y133858D01*
X196850D01*
X0Y0D02*
X196850D01*
X135000D02*
X196850D01*
Y133858D01*
X0Y118000D02*
Y133465D01*
D57*
X86122Y103839D02*
Y118209D01*
X100492Y103839D02*
Y118209D01*
X86122D02*
X100492D01*
X86122Y103839D02*
X100492D01*
X134744Y106595D02*
X145571D01*
X134744Y117028D02*
X145571D01*
Y106595D02*
Y117028D01*
X134744Y106595D02*
Y117028D01*
X161319Y105020D02*
Y117815D01*
X178839Y105020D02*
Y117815D01*
X161319D02*
X178839D01*
X161319Y105020D02*
X178839D01*
X50000Y18110D02*
X80709D01*
X50000Y40157D02*
X80709D01*
Y18110D02*
Y40157D01*
X50000Y18110D02*
Y40157D01*
X79146Y59476D02*
X109854D01*
X79146Y81524D02*
X109854D01*
Y59476D02*
Y81524D01*
X79146Y59476D02*
Y81524D01*
M02*
